<svg width="80" height="82" viewBox="0 0 80 82" fill="none" xmlns="http://www.w3.org/2000/svg">
<g filter="url(#filter0_dd_54_1341)">
<path d="M30.7824 39.7466C36.8491 39.7466 41.7783 34.6911 41.7783 28.4688C41.7783 22.2466 36.8491 17.191 30.7824 17.191C24.7158 17.191 19.7866 22.2466 19.7866 28.4688C19.7866 34.6911 24.7158 39.7466 30.7824 39.7466Z" fill="#949494"/>
<path d="M52.1331 57.367V62.5123C52.1331 63.7388 51.1706 64.7559 49.9456 64.7559H13.0205C11.8247 64.7559 10.833 63.7388 10.833 62.5123V57.367C10.833 50.1576 16.5497 44.2943 23.5788 44.2943H39.3872C40.8163 44.2943 42.1872 44.5336 43.4705 45.0123C43.4705 45.0123 43.4705 44.9823 43.4997 45.0123C48.5164 46.7473 52.1331 51.6234 52.1331 57.367Z" fill="#949494"/>
<path d="M52.1331 57.367V62.5123C52.1331 63.7388 51.1706 64.7559 49.9456 64.7559H13.0205C11.8247 64.7559 10.833 63.7388 10.833 62.5123V57.367C10.833 50.1576 16.5497 44.2943 23.5788 44.2943H39.3872C40.8163 44.2943 42.1872 44.5336 43.4705 45.0123C43.4705 45.0123 43.4705 44.9823 43.4997 45.0123C48.5164 46.7473 52.1331 51.6234 52.1331 57.367Z" fill="#949494"/>
<path d="M69.1661 54.7947V59.0126C69.1661 59.9998 68.3786 60.8075 67.4161 60.8075H56.5079V57.3674C56.5079 54.346 55.7495 51.4742 54.437 48.9913C53.8829 47.9742 53.2704 47.017 52.5704 46.1494C52.0746 45.5811 51.5787 45.0127 51.0537 44.5341H59.162C59.4829 44.5341 59.7745 44.534 60.0662 44.5939C60.4454 44.6238 60.8245 44.6836 61.2037 44.7734C63.4203 45.252 65.3453 46.5084 66.7745 48.1836C67.0078 48.4529 67.2412 48.752 67.4453 49.081C67.4745 49.081 67.4745 49.081 67.4453 49.111C67.9995 49.9486 68.437 50.846 68.7287 51.8332C68.8162 52.1622 68.9036 52.4913 68.962 52.8203C69.1078 53.4485 69.1661 54.1067 69.1661 54.7947Z" fill="#949494"/>
<path d="M52.7746 39.3281C57.5909 39.3281 61.4954 35.3236 61.4954 30.3837C61.4954 25.4438 57.5909 21.4393 52.7746 21.4393C47.9582 21.4393 44.0537 25.4438 44.0537 30.3837C44.0537 35.3236 47.9582 39.3281 52.7746 39.3281Z" fill="#949494"/>
</g>
<defs>
<filter id="filter0_dd_54_1341" x="0.833008" y="0.19104" width="78.333" height="81.5648" filterUnits="userSpaceOnUse" color-interpolation-filters="sRGB">
<feFlood flood-opacity="0" result="BackgroundImageFix"/>
<feColorMatrix in="SourceAlpha" type="matrix" values="0 0 0 0 0 0 0 0 0 0 0 0 0 0 0 0 0 0 127 0" result="hardAlpha"/>
<feOffset dy="-7"/>
<feGaussianBlur stdDeviation="5"/>
<feComposite in2="hardAlpha" operator="out"/>
<feColorMatrix type="matrix" values="0 0 0 0 0.254167 0 0 0 0 0.253531 0 0 0 0 0.253531 0 0 0 1 0"/>
<feBlend mode="normal" in2="BackgroundImageFix" result="effect1_dropShadow_54_1341"/>
<feColorMatrix in="SourceAlpha" type="matrix" values="0 0 0 0 0 0 0 0 0 0 0 0 0 0 0 0 0 0 127 0" result="hardAlpha"/>
<feOffset dy="7"/>
<feGaussianBlur stdDeviation="5"/>
<feComposite in2="hardAlpha" operator="out"/>
<feColorMatrix type="matrix" values="0 0 0 0 0.0208333 0 0 0 0 0.0207813 0 0 0 0 0.0207813 0 0 0 1 0"/>
<feBlend mode="normal" in2="effect1_dropShadow_54_1341" result="effect2_dropShadow_54_1341"/>
<feBlend mode="normal" in="SourceGraphic" in2="effect2_dropShadow_54_1341" result="shape"/>
</filter>
</defs>
</svg>
